<svg xmlns="http://www.w3.org/2000/svg" xmlns:xlink="http://www.w3.org/1999/xlink" viewBox="0 0 12 12">
<style type="text/css">
	.st1{fill:#9C4424;}
	.st2{fill:#F2F1D2;}
	.st3{fill:url(#lg1)}
</style>
<g>
	<linearGradient id="lg1" gradientUnits="userSpaceOnUse" x1="2.7109" y1="9.3023" x2="10.3405" y2="9.3023">
		<stop  offset="0" style="stop-color:#79BB9A"/>
		<stop  offset="1" style="stop-color:#297B71"/>
	</linearGradient>
	<path class="st3" transform="translate(-4.5, -5.35) scale(1.6)" d="M6.5,10.85c0.04,0,0.08,0,0.12,0c1.64,0,2.65-0.79,3.59-1.76c0.23-0.23,0.18-0.61-0.09-0.79
		C9.61,7.97,9.04,7.76,8.42,7.76c-0.62,0-1.21,0.22-1.7,0.55C5.84,8.9,4.81,9.22,3.75,9.22H2.71C3.63,10.04,4.92,10.81,6.5,10.85z"
		/>
	<g transform="translate(-2.5, -2.5) scale(1.4)">
		<g transform="translate(0.5, 0)">
			<path class="st1" d="M4.37,8.81L4.36,8.8L4.32,8.82L4.26,8.78l0,0L4.18,8.79L4.1,8.76L4.06,8.74L4.02,8.72l0,0L3.96,8.73
				L3.87,8.68L3.82,8.64L3.81,8.63L3.79,8.63L3.75,8.61L3.68,8.6L3.62,8.54L3.6,8.52L3.56,8.49L3.51,8.45L3.5,8.43L3.43,8.4
				L3.42,8.37L3.36,8.36L3.35,8.31L3.32,8.3L3.26,8.21L3.26,8.2L3.23,8.18L3.18,8.12L3.15,8.05l0-0.04L3.13,8L3.11,7.97L3.1,7.95
				L3.03,7.9L3.01,7.81L3,7.79l0-0.01L2.94,7.73l0-0.05L2.92,7.67L2.88,7.58l0-0.06L2.86,7.5L2.82,7.44L2.79,7.35L2.8,7.31
				L2.74,7.27L2.75,7.2L2.74,7.18L2.72,7.09l0.01-0.04L2.72,7.04L2.7,7L2.68,6.96L2.66,6.88l0.01-0.06L2.66,6.78L2.63,6.73l0-0.08
				l0-0.03L2.63,6.58l0-0.03L2.6,6.51L2.59,6.44l0-0.02L2.56,6.36L2.58,6.3L2.57,6.27l0-0.05L2.56,6.19L2.56,6.14L2.55,6.07
				l0.01-0.03L2.53,5.99l0.01-0.03L2.52,5.92l0.03-0.09l0-0.02L2.54,5.75L2.56,5.7L2.54,5.67L2.52,5.55l0.03-0.04L2.54,5.45
				l0.02-0.07l0.01-0.03l0-0.02l0-0.03L2.57,5.24l0.01-0.08l0-0.01L2.57,5.11l0.03-0.1l0,0L2.59,4.98l0.02-0.11l0.02-0.03l0-0.01
				l0.01-0.07l0.02-0.05L2.64,4.66l0.05-0.08l0.01-0.02L2.7,4.53l0-0.04l0-0.07l0.03-0.06l0.02-0.04l0.03-0.05l0.01-0.02L2.78,4.19
				l0.04-0.1l0.03-0.02l0-0.01L2.87,4l0.01-0.03l0.01-0.06l0.04-0.07L2.97,3.8l0.02-0.01l0-0.1l0.08-0.04l0-0.01l0.03-0.05L3.1,3.58
				l0-0.04l0.04-0.08L3.2,3.4l0-0.07l0.08-0.03l0.01-0.01l0.06-0.06l0.04-0.02L3.4,3.19l0.04-0.03l0.02-0.02l0.05-0.07l0.03-0.01
				l0.02-0.06l0.08,0l0.01-0.01L3.7,2.96l0.02-0.03l0,0l-0.05-0.1L3.64,2.83L3.57,2.74L3.54,2.59l0.08-0.06l0.04-0.04l0.07-0.04
				l0.06-0.01l0.03-0.05l0.1-0.02l0.02,0l0.02-0.01l0.06-0.03L4.1,2.3L4.14,2.3l0.03-0.01l0.07-0.01l0,0L4.3,2.23l0.05,0.03
				l0.02-0.02l0.12,0.02l0.02,0.01l0.02,0l0.04,0l0.07-0.02l0.04,0.02l0.04-0.01l0.08,0.03L4.9,2.26l0.05,0.06l0,0l0.06,0.02
				L5.1,2.36l0.01,0.02l0.03,0l0.07,0.05l0.04,0.02l0.04,0.03l0.01,0l0.06,0.01l0.2,0.21L5.4,2.77L5.39,2.81L5.34,2.83L5.31,2.92
				l0,0l0.04,0.03l0.02,0.02l0.04,0.01l0.06,0.04l0.04,0.03l0.05,0.04l0.02,0.03L5.6,3.14l0.02,0.02L5.7,3.17l0.04,0.08l0.01,0.01
				L5.81,3.3l0.01,0.03l0.06,0.03l0.02,0.09L5.9,3.46l0.01,0.01l0.06,0.04l0.02,0.05l0.05,0.04l0.01,0.06l0.03,0.03L6.1,3.77l0,0.01
				l0.04,0.03l0.01,0.06l0.03,0.05l0,0.03L6.23,4L6.22,4.06L6.24,4.1l0,0.03l0.02,0.02l0.01,0.08l0.01,0.02l0.03,0.05l0,0.06
				l0.02,0.06L6.31,4.55L6.18,4.62l-0.02,0L6.11,4.66L6.05,4.64L6.03,4.66l-0.1,0l-0.01,0L5.88,4.68l-0.1-0.01L5.75,4.7L5.68,4.69
				l-0.01,0L5.6,4.73l-0.04,0L5.52,4.75L5.46,4.74L5.44,4.75l-0.05,0L5.33,4.78L5.28,4.77L5.27,4.78L5.18,4.8L5,4.74l0.02-0.12
				l0-0.02L4.96,4.56l0.01-0.11l0-0.01l0-0.01L4.95,4.4L4.93,4.38L4.86,4.31l0-0.03L4.84,4.26L4.83,4.2L4.79,4.19L4.74,4.12
				L4.73,4.09L4.71,4.08L4.69,4.07L4.66,4.06L4.62,4.04l-0.02,0l-0.01,0L4.54,4.05L4.47,4.04l-0.02,0L4.43,4.06L4.36,4.07L4.33,4.09
				l-0.01,0L4.31,4.11L4.26,4.15L4.23,4.18L4.2,4.21L4.17,4.24L4.16,4.25L4.15,4.3L4.07,4.34L4.06,4.35L4.04,4.39L4.01,4.42l0,0.01
				L4,4.47L3.96,4.53l0,0l0.01,0.08L3.93,4.65l0,0.01L3.91,4.72L3.9,4.78L3.86,4.82L3.86,4.86L3.83,4.89l0.02,0.06L3.81,5.01l0,0.02
				L3.8,5.08l0,0.05L3.78,5.2L3.77,5.23L3.8,5.31L3.76,5.35l0.02,0.04L3.74,5.44l0.01,0.03L3.73,5.52l0,0.01l0.01,0.08L3.72,5.66
				L3.74,5.7L3.74,5.8L3.73,5.83l0,0.01l0,0.09l0,0.01l0.02,0.02L3.74,6.07l0.04,0.05L3.73,6.19l0,0.01l0,0.03L3.77,6.3L3.75,6.36
				l0.01,0.03l0,0.01l0.02,0.02l0.01,0.1L3.79,6.56L3.81,6.6L3.79,6.65l0.06,0.07L3.82,6.79l0.02,0.03l0.03,0.06l0.01,0.06
				l0.01,0.05l0,0l0.03,0.02l0.02,0.07l0.03,0.06l0,0.02L4,7.19l0,0.04l0.01,0.01l0.03,0.08l0.02,0.04l0.01,0.02l0.07,0.02
				l0.02,0.07L4.18,7.5L4.2,7.53l0.01,0.01l0.06,0.03l0.04,0.05l0.01,0l0.09,0.02l0.03,0.03l0.05-0.01l0.06,0.02l0.02-0.01L4.6,7.65
				l0.07-0.03l0.04,0.01l0.01-0.01l0.05-0.08l0.03,0L4.8,7.52l0.08-0.03l0.01-0.03l0.07-0.08l0.02-0.01l0.01-0.03L5.02,7.3
				l0.01-0.02l0.02-0.04l0.02-0.03l0.02-0.04l0-0.01L5.09,7.12l0.03-0.08l0.02-0.06l0.04-0.05l0,0l-0.03-0.1l0.08-0.06l0-0.05
				L5.25,6.7L5.24,6.66l0.03-0.07l0-0.01L5.25,6.51l0.02-0.03l0-0.01l0-0.09l0.02-0.04l0-0.07l0.02-0.03l0-0.01l0.02-0.08l0-0.01
				L5.32,6.1l0.02-0.19L5.5,5.93l0.03,0L5.6,5.93l0.04,0.02l0.06-0.03l0.08,0.02l0.06,0.01l0.01,0.01l0.03-0.01l0.03,0.01l0.05-0.03
				l0.08,0.03l0.04,0l0.02,0.01l0.07-0.02L6.2,5.96l0.16-0.08L6.35,6.16L6.33,6.21l0.03,0.07L6.33,6.32l0,0l0.01,0.11L6.31,6.47
				L6.32,6.5L6.29,6.56l0,0.01l0,0.03l0.01,0.05l0,0.06L6.28,6.81L6.26,6.82l0.01,0.02L6.23,6.93l0,0.01l0,0.01l0,0.08L6.2,7.11
				L6.18,7.13l0,0.04L6.15,7.24L6.13,7.26l0,0.01l0,0.09L6.09,7.4L6.08,7.43L6.07,7.45l0.01,0.04L6.05,7.57L6.02,7.62L5.99,7.66
				L6,7.7L5.95,7.8L5.92,7.83L5.91,7.89L5.87,7.96L5.82,8l0,0.05L5.75,8.12L5.73,8.13L5.72,8.15L5.69,8.21L5.64,8.28L5.6,8.29
				L5.58,8.31L5.53,8.36l0,0L5.5,8.45L5.45,8.45L5.44,8.48L5.33,8.53l-0.02,0L5.29,8.55L5.26,8.57L5.21,8.63L5.16,8.63L5.14,8.66
				L5.05,8.69L5,8.76L4.93,8.74l0,0L4.86,8.76L4.78,8.79L4.75,8.78L4.73,8.8L4.64,8.8L4.6,8.8L4.55,8.8l-0.01,0L4.49,8.82L4.37,8.81
				z M3.85,2.88l0.02,0l0.02,0l0.03-0.02l0.06-0.03l0.05-0.01L4.04,2.8l0.07-0.03l0.01,0l0.03-0.04l0.09-0.01L4.3,2.71l0.04,0.01
				l0.03-0.01l0.06,0l0.07-0.02l0.05,0.02l0.01,0l0.1-0.02l0.04,0.03l0.06-0.01l0.06,0.01l0.05,0L4.85,2.72l-0.02,0L4.77,2.68
				l-0.01,0l-0.02,0l-0.05,0l-0.05,0l-0.09,0L4.54,2.67l-0.01,0L4.44,2.65l0,0l-0.01,0L4.36,2.68l-0.07,0l-0.02,0L4.24,2.69l-0.07,0
				l-0.02,0l0,0L4.09,2.74l-0.06,0L4.01,2.76L4,2.76L3.98,2.79L3.92,2.83L3.88,2.85L3.85,2.88z M4.96,2.78l0.02,0.01l0,0L4.97,2.77
				L4.92,2.76l0.01,0.01L4.96,2.78z"/>
			<polygon class="st1" points="8.6,9.19 8.58,9.19 8.48,9.19 8.45,9.17 8.42,9.17 8.36,9.14 8.35,9.14 8.33,9.14 8.27,9.15 
				8.22,9.16 8.13,9.16 8.11,9.15 8.1,9.15 8.01,9.14 8,9.14 7.99,9.14 7.92,9.16 7.84,9.16 7.81,9.15 7.78,9.17 7.71,9.16 
				7.69,9.16 7.68,9.16 7.62,9.2 7.46,9.18 7.42,9.04 7.42,9.03 7.4,9.01 7.37,8.83 7.31,8.81 7.24,8.83 7.16,8.82 7.12,8.81 
				7.09,8.8 7.05,8.83 6.95,8.82 6.88,8.81 6.86,8.81 6.82,8.82 6.76,8.84 6.57,8.81 6.57,8.67 6.56,8.63 6.56,8.57 6.56,8.55 
				6.53,8.49 6.54,8.46 6.5,8.42 6.52,8.37 6.5,8.34 6.51,8.24 6.51,8.23 6.5,8.2 6.48,8.13 6.48,8.05 6.5,8.01 6.49,8 6.46,7.83 
				6.6,7.81 6.66,7.77 6.74,7.79 6.77,7.79 6.78,7.79 6.84,7.74 6.89,7.76 6.9,7.74 7,7.72 7.06,7.74 7.08,7.72 7.15,7.7 7.18,7.7 
				7.19,7.61 7.2,7.57 7.2,7.56 7.2,7.52 7.19,7.48 7.18,7.39 7.2,7.34 7.2,7.33 7.2,7.3 7.18,7.24 7.2,7.16 7.21,7.14 7.2,7.11 
				7.2,7.08 7.19,7.03 7.19,6.96 7.19,6.94 7.18,6.88 7.19,6.83 7.19,6.79 7.2,6.74 7.19,6.71 7.19,6.6 7.2,6.57 7.18,6.52 
				7.19,6.5 7.16,6.46 7.19,6.37 7.2,6.35 7.19,6.29 7.21,6.24 7.2,6.21 7.17,6.1 7.2,6.06 7.18,6 7.2,5.92 7.21,5.89 7.21,5.87 
				7.21,5.84 7.19,5.79 7.2,5.71 7.2,5.7 7.18,5.66 7.2,5.56 7.2,5.56 7.19,5.53 7.19,5.43 7.21,5.39 7.21,5.39 7.21,5.32 
				7.22,5.27 7.18,5.21 7.21,5.13 7.21,5.1 7.21,5.07 7.21,5.04 7.2,4.97 7.21,4.91 7.21,4.87 7.23,4.81 7.23,4.79 7.2,4.73 
				7.21,4.63 7.23,4.6 7.23,4.59 7.23,4.53 7.23,4.5 7.21,4.45 7.22,4.37 7.24,4.31 7.25,4.3 7.2,4.21 7.25,4.14 7.25,4.14 
				7.25,4.08 7.25,4.07 7.24,4.03 7.23,3.94 7.23,3.94 7.22,3.94 7.19,3.93 7.16,3.93 7.11,3.93 7.08,3.93 7,3.95 6.97,3.94 
				6.92,3.97 6.86,3.92 6.84,3.93 6.8,3.92 6.77,3.93 6.69,3.93 6.52,3.88 6.55,3.75 6.54,3.73 6.54,3.66 6.55,3.62 6.55,3.59 
				6.54,3.53 6.54,3.52 6.51,3.49 6.53,3.41 6.52,3.35 6.53,3.32 6.53,3.3 6.53,3.24 6.52,3.18 6.53,3.13 6.53,3.13 6.51,3.03 
				6.6,2.92 6.67,2.9 6.72,2.88 6.78,2.87 6.86,2.86 6.9,2.88 6.92,2.88 6.94,2.88 6.98,2.85 7.05,2.86 7.08,2.85 7.16,2.85 
				7.18,2.85 7.22,2.84 7.28,2.84 7.33,2.84 7.36,2.85 7.39,2.83 7.46,2.83 7.51,2.83 7.56,2.83 7.59,2.84 7.61,2.83 7.64,2.83 
				7.7,2.79 7.78,2.81 7.79,2.81 7.86,2.78 7.89,2.79 7.94,2.76 8.02,2.8 8.02,2.8 8.04,2.8 8.1,2.76 8.15,2.77 8.2,2.74 8.25,2.76 
				8.28,2.75 8.36,2.75 8.37,2.76 8.41,2.73 8.47,2.74 8.52,2.72 8.55,2.73 8.6,2.7 8.66,2.72 8.7,2.71 8.72,2.72 8.75,2.7 
				8.83,2.7 8.85,2.7 8.9,2.68 8.96,2.68 9.02,2.67 9.05,2.68 9.08,2.66 9.1,2.67 9.15,2.62 9.21,2.64 9.24,2.62 9.48,2.65 
				9.45,2.79 9.47,2.83 9.45,2.93 9.47,2.96 9.46,3.03 9.46,3.04 9.48,3.11 9.48,3.15 9.5,3.2 9.48,3.25 9.5,3.28 9.49,3.33 
				9.51,3.39 9.5,3.43 9.5,3.45 9.52,3.54 9.5,3.59 9.5,3.61 9.5,3.65 9.5,3.66 9.55,3.72 9.52,3.83 9.47,3.99 9.35,3.95 9.34,3.95 
				9.31,3.96 9.21,4 9.18,3.97 9.14,3.99 9.07,3.96 9.03,3.98 8.93,3.97 8.9,3.96 8.87,3.96 8.84,3.96 8.8,3.97 8.73,3.97 
				8.71,3.96 8.68,3.97 8.62,3.99 8.54,3.98 8.55,4.01 8.54,4.13 8.53,4.18 8.53,4.23 8.52,4.24 8.54,4.3 8.5,4.38 8.5,4.4 
				8.49,4.45 8.48,4.49 8.48,4.5 8.49,4.55 8.48,4.62 8.48,4.63 8.52,4.71 8.48,4.75 8.49,4.76 8.48,4.83 8.49,4.89 8.46,4.94 
				8.47,4.99 8.44,5.03 8.48,5.09 8.44,5.15 8.45,5.18 8.44,5.23 8.45,5.28 8.43,5.34 8.42,5.38 8.46,5.47 8.43,5.51 8.45,5.55 
				8.41,5.6 8.42,5.63 8.4,5.68 8.4,5.7 8.41,5.78 8.39,5.83 8.41,5.87 8.39,5.97 8.38,6 8.39,6.01 8.38,6.1 8.38,6.11 8.39,6.14 
				8.37,6.25 8.37,6.25 8.4,6.31 8.35,6.37 8.35,6.38 8.35,6.41 8.37,6.49 8.34,6.55 8.34,6.58 8.33,6.59 8.35,6.62 8.34,6.73 
				8.33,6.75 8.34,6.8 8.32,6.85 8.35,6.94 8.31,6.99 8.31,7.03 8.32,7.1 8.3,7.16 8.3,7.21 8.3,7.22 8.31,7.25 8.3,7.32 8.31,7.4 
				8.29,7.42 8.32,7.46 8.29,7.5 8.3,7.52 8.29,7.57 8.31,7.56 8.36,7.58 8.36,7.58 8.47,7.55 8.5,7.57 8.53,7.56 8.6,7.58 
				8.61,7.58 8.63,7.57 8.69,7.55 8.74,7.55 8.83,7.53 8.85,7.55 8.87,7.54 8.97,7.55 8.98,7.56 9.13,7.51 9.16,7.72 9.15,7.8 
				9.14,7.82 9.15,7.86 9.13,7.93 9.13,7.96 9.13,7.97 9.15,8.05 9.12,8.11 9.13,8.14 9.12,8.15 9.14,8.19 9.14,8.27 9.13,8.33 
				9.12,8.37 9.14,8.41 9.14,8.52 9.13,8.55 9.14,8.61 9.14,8.69 9.12,8.76 9.08,8.84 8.96,8.91 8.87,8.87 8.85,8.87 8.85,8.87 
				8.81,9.01 8.78,9.05 8.88,9.37 			"/>
		</g>
		<g>
			<path class="st2" d="M6.05,5.89l0,0.05L6.02,5.99L6.01,6.03l0.02,0.05L6.01,6.12l0.02,0.05l0,0.04L6,6.25L6,6.3L5.98,6.34
				L5.98,6.38l0,0.05l0,0.05l0,0.04l0,0.04L5.94,6.6l0.02,0.05L5.94,6.69L5.91,6.73l0.01,0.05l0,0.05L5.9,6.87L5.88,6.91l0,0.05
				L5.85,6.99L5.83,7.03l0,0.05l0,0.05L5.79,7.16L5.78,7.2L5.76,7.24l0.01,0.05L5.75,7.33L5.73,7.37L5.7,7.41L5.67,7.44L5.69,7.5
				L5.67,7.54L5.63,7.57L5.61,7.61L5.6,7.66L5.58,7.7L5.55,7.73L5.51,7.76l0,0.05L5.48,7.84L5.44,7.87L5.43,7.91L5.41,7.95
				L5.38,7.99L5.33,8.01L5.3,8.04L5.27,8.07L5.23,8.1L5.22,8.15L5.17,8.16L5.15,8.21L5.11,8.23L5.06,8.24L5.03,8.27L4.99,8.29
				L4.96,8.33L4.92,8.33L4.88,8.37L4.84,8.38L4.8,8.39L4.76,8.43L4.71,8.41L4.67,8.44L4.63,8.46L4.59,8.48L4.54,8.46L4.5,8.49
				l-0.05,0L4.41,8.49l-0.05,0l-0.04,0L4.28,8.51l-0.04,0L4.19,8.48L4.14,8.49L4.1,8.47L4.06,8.48l-0.05,0L3.97,8.46L3.93,8.44
				L3.89,8.42L3.85,8.4L3.8,8.42L3.76,8.4L3.72,8.37L3.69,8.33L3.64,8.32L3.6,8.31L3.56,8.3L3.52,8.27L3.49,8.24L3.45,8.21
				L3.42,8.18L3.39,8.15L3.35,8.13L3.33,8.08L3.28,8.07L3.26,8.02L3.21,8.01L3.19,7.97L3.17,7.93L3.13,7.9L3.1,7.87L3.08,7.83
				L3.07,7.78L3.05,7.74L3.02,7.71L3,7.67L2.95,7.64L2.95,7.6L2.93,7.55L2.91,7.51L2.87,7.48l0-0.05L2.83,7.4L2.81,7.36l0-0.05
				l0-0.05L2.77,7.24L2.75,7.2L2.73,7.16L2.75,7.1L2.73,7.06L2.69,7.03l0.01-0.05L2.67,6.94L2.66,6.9l0.01-0.05L2.65,6.81L2.63,6.77
				L2.61,6.73L2.6,6.69l0.01-0.05L2.6,6.59L2.59,6.55L2.57,6.51l0-0.05l0-0.05L2.56,6.38L2.55,6.33L2.53,6.29l0-0.04l0-0.04
				L2.51,6.16l0.01-0.05L2.51,6.07l0-0.05L2.5,5.98L2.49,5.94L2.49,5.89L2.5,5.85L2.48,5.8L2.5,5.76L2.47,5.71l0.01-0.04l0-0.04
				l0-0.04L2.5,5.54l0-0.04L2.48,5.45L2.47,5.4L2.5,5.36L2.49,5.32L2.48,5.27L2.5,5.23l0.01-0.04l0.01-0.04l0-0.04L2.51,5.05
				l0.01-0.04l0.02-0.04L2.51,4.92l0.01-0.04l0.02-0.04L2.53,4.79l0.01-0.04l0.03-0.04l0-0.04l0-0.04L2.6,4.58l0.01-0.04L2.59,4.48
				l0.02-0.04L2.63,4.4l0.01-0.04l0.01-0.04l0-0.05l0.02-0.04l0.02-0.04L2.7,4.15l0.02-0.04l0.01-0.04L2.72,4.02l0.02-0.04
				l0.04-0.03L2.79,3.9L2.8,3.86l0.02-0.04l0.01-0.05l0.02-0.04L2.87,3.7l0.03-0.03l0.02-0.04l0-0.05l0.05-0.02l0.02-0.04l0.02-0.04
				l0.02-0.04l0-0.05l0.02-0.04l0.03-0.03l0.04-0.02l0-0.06l0.05-0.02l0.02-0.04l0.03-0.03l0.04-0.02L3.3,3.09l0.03-0.03l0.03-0.03
				l0.03-0.04l0.05-0.01l0.02-0.05l0.05,0L3.55,2.9l0.04-0.02l0.03-0.04l0.04-0.02L3.7,2.81L3.75,2.8l0.04-0.03l0.04-0.02l0.04-0.01
				l0.04-0.02l0.04-0.02l0.05,0l0.03-0.04l0.05,0l0.04-0.01l0.05,0.01l0.04-0.02l0.04,0L4.3,2.64l0.04,0.02l0.04,0l0.05-0.01
				l0.04,0.03l0.05-0.01l0.05-0.01l0.04,0.01l0.04,0l0.04,0.04l0.04,0l0.04,0.03l0.05-0.02l0.04,0.02l0.04,0.01l0.04,0.02L4.98,2.8
				l0.05,0.01l0.04,0.03L5.1,2.86l0.03,0.03l0.04,0.01l0.04,0.03l0.03,0.03l0.03,0.03l0.03,0.04l0.04,0.02l0.03,0.03l0.05,0.01
				l0.02,0.04l0.03,0.03L5.52,3.2l0.02,0.05l0.05,0.02l0.01,0.05l0.03,0.04l0.03,0.03l0.04,0.03L5.7,3.46l0.04,0.03l0.01,0.05
				l0.03,0.03l0.01,0.04L5.8,3.66l0.04,0.03l0.01,0.05l0.03,0.04l0,0.05l0.04,0.03L5.9,3.91l0.03,0.04L5.92,3.99l0.04,0.04
				l0.01,0.04l0.01,0.04L6,4.16l0,0.05l0.01,0.04L6.01,4.28L5.97,4.3L5.93,4.3L5.89,4.34L5.84,4.32L5.8,4.35l-0.05,0L5.71,4.35
				L5.66,4.37l-0.05,0L5.57,4.36L5.53,4.39L5.48,4.38L5.44,4.4L5.4,4.42L5.35,4.41L5.31,4.44L5.26,4.42L5.22,4.45l-0.05,0L5.13,4.47
				L5.08,4.46L5.04,4.48L5,4.49L4.95,4.47l0.01-0.03L4.95,4.4L4.94,4.35L4.9,4.32l0-0.05l0-0.05L4.89,4.19L4.86,4.15L4.84,4.11
				L4.8,4.08l0.01-0.05L4.76,4L4.76,3.95L4.73,3.92L4.68,3.9L4.66,3.86L4.64,3.82L4.6,3.8L4.56,3.77L4.52,3.76L4.48,3.74L4.44,3.73
				l-0.04,0L4.35,3.74L4.3,3.74L4.26,3.72l-0.05,0L4.18,3.76L4.13,3.77L4.1,3.79L4.05,3.8L4.03,3.85L3.99,3.87L3.96,3.9L3.93,3.93
				L3.9,3.96L3.86,3.99L3.85,4.03L3.81,4.06L3.78,4.09L3.75,4.13L3.72,4.16L3.7,4.2L3.69,4.25L3.67,4.29L3.65,4.32l0,0.05L3.61,4.41
				l0.01,0.05L3.6,4.5L3.59,4.54L3.56,4.58L3.56,4.62L3.52,4.66L3.51,4.7l0.02,0.05L3.5,4.79l0,0.05L3.49,4.88l0,0.04L3.48,4.97
				L3.46,5.01L3.45,5.05L3.47,5.1L3.43,5.14l0.02,0.05L3.42,5.23l0.01,0.05L3.42,5.32l0.01,0.05l0.01,0.04L3.41,5.45L3.41,5.5
				l0.03,0.05l0,0.04L3.41,5.63l0.01,0.04l0,0.04L3.4,5.77l0.03,0.04l0,0.04L3.41,5.9l0.03,0.04L3.41,5.99l0.01,0.04l0,0.04
				l0.02,0.04L3.43,6.17l0.01,0.04L3.44,6.26L3.47,6.3l0.01,0.04L3.47,6.39l0.02,0.04L3.48,6.48l0.01,0.04l0.03,0.04L3.5,6.61
				l0.02,0.04l0.02,0.04l0.02,0.04l0,0.05l0.01,0.04l0,0.05L3.62,6.9l0.01,0.04l0.02,0.04L3.65,7.03l0.04,0.03L3.68,7.11l0.04,0.03
				l0.02,0.04l0.02,0.04l0.01,0.05L3.8,7.3l0.05,0.02l0.01,0.05L3.9,7.39l0.02,0.04l0.04,0.02l0.04,0.02l0.03,0.04l0.03,0.04l0.05,0
				l0.04,0.01L4.19,7.6l0.04,0.01l0.05-0.01l0.04,0.02l0.05,0l0.04-0.02l0.04-0.01L4.5,7.56l0.05,0.01l0.04-0.03l0.04-0.03
				l0.02-0.04l0.05,0l0.01-0.05L4.76,7.4L4.8,7.38l0.01-0.05l0.03-0.03l0.05-0.02L4.9,7.23L4.93,7.2l0.02-0.04l0.02-0.04L5,7.08
				l0.02-0.04L5.04,7L5.03,6.95L5.04,6.9l0.02-0.04l0.03-0.04l0.03-0.04l0.01-0.05L5.11,6.69l0.04-0.03l0.01-0.04l0-0.05l0.02-0.04
				L5.18,6.48L5.2,6.44L5.21,6.4L5.2,6.35l0.03-0.04L5.21,6.26l0-0.04l0.02-0.04l0-0.04l0.04-0.04L5.25,6.04L5.26,6l0.01-0.04
				L5.26,5.91l0-0.04l0.04,0l0.04,0l0.04,0l0.04,0.02l0.04,0l0.04-0.02l0.04,0.01l0.04,0.01L5.65,5.9L5.7,5.88L5.74,5.9l0.04-0.03
				l0.04,0.01l0.04,0L5.91,5.9l0.04-0.01L6,5.92L6.05,5.89z M5.03,2.61L4.99,2.58L4.96,2.54L4.93,2.51l-0.05,0L4.85,2.47l-0.05,0
				L4.76,2.45L4.73,2.41l-0.05,0L4.64,2.39L4.6,2.37l-0.05,0l-0.05,0l-0.04,0l-0.04,0L4.38,2.33L4.33,2.36L4.29,2.35L4.24,2.33
				L4.2,2.36L4.16,2.37l-0.04,0L4.07,2.36L4.02,2.38l-0.05,0l-0.05,0L3.89,2.4L3.86,2.43l-0.05,0L3.77,2.46L3.73,2.47L3.7,2.52
				L3.67,2.54L3.63,2.57L3.6,2.59L3.58,2.55L3.53,2.53L3.5,2.5L3.49,2.45l0.03-0.02L3.55,2.4l0.04-0.02l0.05-0.01l0.05-0.01
				l0.03-0.05L3.75,2.3L3.8,2.3l0.04-0.03l0.04-0.02l0.04-0.01l0.05,0.01l0.04-0.01l0.04,0l0.04,0l0.04-0.03l0.05,0.03l0.04-0.04
				l0.05,0.01l0.04,0.02L4.36,2.2l0.04,0l0.05-0.01l0.04,0.02L4.54,2.2l0.04,0.02l0.04,0.02l0.05-0.02L4.7,2.26l0.05,0l0.04,0.01
				l0.04,0.01l0.03,0.04l0.05-0.01l0.04,0.03l0.04,0.02l0.03,0.03l0.04,0.03l0.05,0.01l0.04,0.04L5.1,2.49L5.09,2.54L5.05,2.56
				L5.03,2.61z"/>
			<path class="st2" d="M7.97,7.53l0.04,0l0.04,0.01l0.04,0l0.04-0.03l0.05,0.02l0.04-0.02L8.27,7.5l0.05,0.02l0.04-0.02L8.4,7.52
				l0.04,0L8.49,7.5l0.04-0.01l0.04-0.01l0.04-0.01l0.04,0.03l0.04-0.03l0.04,0.01l0.04,0.02l0.05-0.02l0.01,0.05L8.85,7.58
				L8.83,7.63l0.01,0.05L8.83,7.72L8.81,7.76l0.01,0.05l0.01,0.05L8.81,7.9l0,0.05L8.81,7.99l0.03,0.05l0,0.05L8.82,8.12L8.81,8.17
				L8.8,8.21l0.03,0.05l0,0.05L8.81,8.35l0.01,0.05l0.01,0.05l0,0.05L8.82,8.53L8.8,8.57L8.77,8.59L8.72,8.57L8.68,8.56L8.64,8.56
				l-0.04,0L8.55,8.56L8.5,8.54l-0.04,0L8.42,8.53L8.37,8.52L8.33,8.55L8.28,8.51L8.24,8.54L8.2,8.53L8.15,8.51L8.11,8.51l-0.04,0
				L8.02,8.52L7.98,8.5L7.93,8.52L7.89,8.51L7.84,8.5L7.8,8.52L7.75,8.49L7.71,8.51l-0.04,0l-0.04,0L7.58,8.49L7.53,8.51L7.49,8.5
				l-0.04,0L7.4,8.5l-0.04,0L7.31,8.51l-0.04,0L7.22,8.48L7.18,8.51L7.13,8.49L7.09,8.5L7.05,8.52L7,8.51L6.96,8.5l-0.04,0l-0.04,0
				L6.83,8.52l-0.04,0L6.74,8.51L6.69,8.49L6.65,8.51l-0.04,0L6.56,8.53L6.51,8.52l0-0.05L6.5,8.43l0-0.05l0-0.05L6.48,8.29
				L6.5,8.25L6.46,8.2l0.02-0.05L6.44,8.11l0-0.05l0.01-0.05L6.43,7.98L6.42,7.93l0-0.05l0.02-0.05L6.43,7.79L6.42,7.75l0.03,0
				L6.5,7.72l0.05,0.01l0.05,0l0.04-0.01l0.04-0.03L6.73,7.7l0.04-0.03l0.04-0.01l0.05,0.01l0.05,0.01l0.04-0.03L7,7.64l0.05-0.01
				l0.05,0.02l0.05-0.01L7.12,7.58l0.02-0.04L7.12,7.5l0-0.04l0.02-0.04L7.14,7.36l0-0.04L7.12,7.27l0-0.04l0.02-0.04l0-0.04l0-0.04
				L7.12,7.05l0.01-0.04l0.01-0.04l0-0.04l0-0.04L7.13,6.83l0-0.04l0-0.04L7.12,6.7l0.02-0.04L7.13,6.61l0.01-0.04l0-0.04l0-0.04
				l0-0.04l0.02-0.04L7.13,6.34L7.15,6.3L7.12,6.25l0.02-0.04l0-0.04l0-0.04l0.02-0.04l0-0.04L7.13,5.99L7.12,5.94L7.15,5.9
				L7.14,5.85L7.13,5.81l0.01-0.04l0.01-0.04l0-0.04L7.14,5.63L7.13,5.59l0-0.04L7.15,5.5L7.13,5.45l0.01-0.04l0.02-0.04L7.13,5.32
				l0-0.04l0.02-0.04l0-0.04l0-0.04L7.16,5.1l0-0.04L7.13,5.01l0.01-0.04l0.01-0.04l0-0.04l0-0.04L7.14,4.79l0.01-0.04l0-0.04
				l0.01-0.04l0.01-0.04l0-0.04L7.14,4.52l0-0.04l0.02-0.04L7.17,4.39l0-0.04l0-0.04L7.15,4.26l0.01-0.04l0.01-0.04l0.02-0.04
				l0-0.04L7.16,4.04L7.2,3.99L7.19,3.95l0-0.04l0-0.04L7.17,3.81l0-0.04l0.01-0.04l0.02-0.04L7.18,3.65L7.15,3.62L7.1,3.64l-0.04,0
				L7.01,3.62L6.97,3.62l-0.04,0l-0.04,0L6.83,3.64L6.79,3.61L6.74,3.64L6.7,3.61L6.65,3.61L6.61,3.61L6.56,3.62l-0.04,0L6.48,3.61
				l0.01-0.04L6.48,3.53l0-0.04l0.01-0.04l0-0.04L6.48,3.35l0.02-0.04L6.46,3.27l0.01-0.04l0-0.04l0.02-0.04L6.47,3.09l0-0.04
				L6.46,3.01l0.02-0.04L6.47,2.92L6.46,2.88l0.03-0.04l0.03-0.01l0.04-0.02l0.04,0L6.65,2.8L6.7,2.83l0.04-0.01l0.05,0.01
				l0.04-0.04L6.87,2.8l0.04-0.01l0.04,0L7.01,2.8l0.04-0.02l0.04,0l0.04,0l0.05,0.01l0.04-0.02l0.04,0l0.04,0l0.04,0l0.05,0.01
				l0.04-0.01L7.5,2.76l0.04-0.03l0.05,0.01l0.04,0l0.04-0.01l0.05,0.02l0.04-0.03l0.05,0.02l0.04,0L7.9,2.73L7.94,2.7l0.05,0.01
				l0.04-0.02L8.07,2.7l0.04-0.02l0.05,0L8.21,2.7l0.04-0.02l0.05,0.01l0.04-0.01l0.05,0.01l0.04-0.03l0.05,0.02l0.04-0.02
				l0.05,0.01L8.6,2.64l0.04,0l0.04,0l0.04-0.02l0.05,0l0.04-0.01l0.05,0.02l0.04-0.02l0.05,0.01L9,2.58L9.05,2.6l0.04-0.03
				l0.06,0.01L9.13,2.62l0.02,0.04L9.15,2.71L9.13,2.76L9.16,2.8L9.15,2.85l0.01,0.04l0.02,0.04L9.16,2.98l0.02,0.04L9.17,3.07
				l0.02,0.04l0,0.05L9.2,3.2L9.18,3.25L9.2,3.29l0.01,0.04L9.19,3.38l0,0.04l0,0.05l0,0.04l0.03,0.04L9.22,3.61L9.2,3.65L9.18,3.64
				L9.13,3.65L9.09,3.66L9.04,3.67L9,3.64L8.95,3.67L8.91,3.65l-0.04,0L8.82,3.67L8.78,3.67L8.73,3.65l-0.04,0L8.64,3.65L8.6,3.66
				l-0.04,0l-0.04,0L8.47,3.66L8.42,3.68L8.38,3.67L8.33,3.65L8.29,3.65L8.25,3.67L8.24,3.71l0,0.04L8.22,3.79l0.02,0.05l0,0.04
				l0,0.04L8.22,3.97l0,0.04L8.2,4.06l0.02,0.05L8.2,4.15L8.19,4.19l0,0.04L8.17,4.28l0,0.04l0.01,0.05L8.17,4.42L8.17,4.46
				l0.02,0.05L8.16,4.55L8.18,4.6L8.17,4.64l0.01,0.05L8.15,4.73l0,0.04L8.13,4.82L8.12,4.86l0.03,0.05L8.13,4.95l0.01,0.05
				L8.13,5.04l0,0.05L8.13,5.13L8.11,5.17L8.11,5.22l0.02,0.05L8.09,5.3l0.02,0.05L8.09,5.39L8.1,5.44L8.08,5.48l0.01,0.05l0,0.05
				L8.08,5.62L8.07,5.66l0.02,0.05L8.09,5.75L8.07,5.79l0.01,0.05l0,0.04L8.05,5.93l0.02,0.05L8.07,6.02L8.04,6.06l0.03,0.05
				L8.03,6.15L8.04,6.2l0,0.04l0.02,0.05L8.03,6.33l0,0.04L8.01,6.42l0.03,0.05l0,0.04L8.02,6.55L8.03,6.6L8,6.64l0,0.04l0.02,0.05
				L7.99,6.77L8,6.82L8,6.86l0.01,0.05L8,6.95L7.99,7L7.98,7.04L8,7.09L7.99,7.13l0,0.04L7.97,7.22l0.02,0.05L7.96,7.31l0.02,0.05
				L7.97,7.4L7.96,7.44L7.95,7.49L7.97,7.53z M8.52,8.73L8.51,8.77L8.48,8.81L8.47,8.85L8.48,8.9L8.43,8.87L8.39,8.88l-0.05,0
				L8.3,8.85L8.25,8.86L8.21,8.84L8.17,8.83L8.12,8.84L8.07,8.85l-0.04,0l-0.04,0L7.94,8.82L7.9,8.84L7.85,8.83L7.8,8.82L7.76,8.84
				L7.72,8.85l-0.05,0L7.63,8.84L7.58,8.86l-0.05,0L7.49,8.85L7.45,8.86L7.4,8.89l-0.03,0L7.36,8.85l0-0.04L7.33,8.76L7.32,8.72
				l0.05-0.01l0.05,0l0.05,0L7.5,8.68l0.04-0.01l0.05,0.02l0.04-0.01l0.04-0.02l0.04,0l0.05,0.01l0.04,0.01l0.04-0.03L7.9,8.66
				l0.04,0.01l0.04-0.01l0.04-0.01l0.04,0l0.04,0.02l0.04,0l0.04,0.01L8.25,8.7L8.3,8.68l0.04,0.04l0.05-0.02l0.04,0.02l0.04,0.03
				L8.52,8.73z"/>
		</g>
	</g>
</g>
</svg>