<?xml version="1.0" encoding="utf-8"?>
<svg version="1.1" id="Layer_2" xmlns="http://www.w3.org/2000/svg" xmlns:xlink="http://www.w3.org/1999/xlink" x="0px" y="0px"
	 viewBox="0 0 64 64" style="enable-background:new 0 0 64 64;" xml:space="preserve">
<style type="text/css">
	.st0{fill:url(#SVGID_1_);}
	.st1{fill:#1D5E55;}
	.st2{fill:url(#SVGID_2_);}
	.st3{fill:#F59942;}
	.st4{fill:url(#SVGID_3_);}
	.st5{fill:url(#SVGID_4_);}
	.st6{fill:url(#SVGID_5_);}
	.st7{fill:url(#SVGID_6_);}
	.st8{fill:url(#SVGID_7_);}
	.st9{fill:url(#SVGID_8_);}
	.st10{fill:url(#SVGID_9_);}
	.st11{fill:url(#SVGID_10_);}
	.st12{fill:url(#SVGID_11_);}
	.st13{fill:url(#SVGID_12_);}
</style>
<g>
	<path class="st1" d="M37.64,9.65c0,0,1.08-1.02,2.63-0.93l0.02,0.23l0.28-0.34c0,0,0.97,0.16,1.28,0.46l-0.03,0.29l0.3-0.17
		l0.49,0.32l-0.22,0.45l0.53-0.14c0,0,0.58,0.5,0.71,0.77l-0.18,0.23l0.35,0.06c0,0,1.31,1.52,1.15,3.15l-1.25-1.32l-0.02-0.23
		l-0.15,0.03l-1.22-0.86l0.11-0.26l-0.32,0.11l-0.28-0.13c0,0,0.04-0.35,0.18-0.42c0.15-0.06-0.52,0.24-0.52,0.24l-1.06-0.45
		l0.13-0.44l-0.5,0.32l-0.93-0.35l0.02-0.32l-0.28,0.14C38.87,10.08,38.47,10.11,37.64,9.65z"/>
	<path class="st1" d="M37.64,9.65c0,0,4.53-2.93,6.92-2.4c0,0-0.33-0.39-0.67-0.4l-0.17,0.09l-0.05-0.31l-0.1-0.05L43.35,6.8l0-0.33
		l-0.23-0.02c0,0-0.85,0.35-0.93,0.32c-0.09-0.02,0.6-0.43,0.6-0.43s-0.79-0.23-1.87,0.15l-0.52,0.72l0.28-0.58
		c0,0-0.65,0.19-1.35,0.77c-0.08,0.06-0.2,0.45-0.2,0.45L39,7.67C39,7.67,38.11,8.1,37.64,9.65z"/>
	<path class="st1" d="M37.64,9.65c0,0,0.73-1.25,1.05-1.62l-0.34-0.28l0.47,0.16l0.48-0.59l-0.17-0.3l0.28,0.1l0.48-0.39
		c0,0-0.27-0.34-0.21-0.36c0.07-0.03,0.37,0.23,0.37,0.23l0.88-0.72l-0.06-0.31l0.14,0.24c0,0,1.45-1.26,1.73-1.85
		c0.28-0.59-2.98,0.11-4.22,1.31l0.27,0.16l-0.46,0.04c0,0-0.54,0.5-0.67,0.86c0,0,0.46-0.06,0.48,0.19c0,0-0.71,0.09-0.9,0.28
		C37.05,6.99,36.42,8.4,37.64,9.65z"/>
	<path class="st1" d="M37.64,9.65c0,0-0.41-2.09-0.36-3.03l-0.24-0.07l0.35-0.2L37.27,5.6L37,5.66l0.46-0.26l0.03-0.75l-0.36-0.14
		l0.47-0.07l0.15-0.58l-0.31-0.19l0.37-0.03l0.25-1.48c0,0-1.3,0.45-1.97,1.69l0.26,0.42l-0.33-0.2c0,0-0.45,1.26-0.42,1.99
		l0.36,0.53l-0.47-0.12C35.49,6.49,36.27,9.29,37.64,9.65z"/>
	<path class="st1" d="M37.64,9.65c0.34-0.04,0.96,0.34,1.17,0.72c0.41,0.76,0.31,0.78,0.1,0.85c-0.21,0.07-0.82,0.33-0.82,0.33
		l0.63,0.19l-0.11,0.72l-0.4,0.09l0.36,0.2l-0.2,0.71l-0.39,0.22L38.35,14l-0.53,2.39l-0.51-0.56l0.23-0.27l-0.33,0.1l-0.34-0.6
		c0,0,0.32-0.35,0.52-0.38c0.2-0.03-0.42-0.01-0.75,0.23l-0.2-0.36c0,0,0.16-0.29,0.44-0.25c0,0-0.22-0.2-0.6-0.04l-0.52-0.91
		l0.67-0.79l-0.74,0.39c0,0-0.04-0.25-0.11-0.73l0.82-0.58l-0.67,0.27C35.74,11.92,35.53,9.91,37.64,9.65z"/>
	<path class="st1" d="M37.64,9.65c0,0-4.93,1.2-7.68,3.45c0,0-0.14-0.18,0.18-0.68l0.29-0.1l-0.18-0.06c0,0,0.19-0.41,0.29-0.47
		c0.1-0.06,0.2,0.01,0.2,0.01l-0.09-0.18l0.15-0.31l0.48-0.05c0,0-0.16-0.23-0.34-0.17l0.35-0.37c0,0,0.23-0.08,0.37,0.01
		c0.14,0.08-0.16-0.13-0.16-0.13s0.37-0.46,0.46-0.48c0.09-0.03,0.58,0.42,0.58,0.42l0.15-0.08l-0.45-0.49l0.71-0.35l0.28,0.3
		L33.08,9.5c0,0,0.57-0.13,0.73-0.18c0.16-0.05,0.65,0.34,0.65,0.34l-0.28-0.47l0.59,0.01l0.46,0.45l-0.17-0.53l0.33,0.04l0.15,0.31
		l0.11-0.31C35.66,9.16,36.73,8.9,37.64,9.65z"/>
	<path class="st1" d="M37.64,9.65l-1.81-0.34l-0.21-0.37l-0.1,0.26l-0.55-0.26l-0.15-0.43l-0.21,0.12l-0.53-0.09L33.9,8.22
		l-0.17,0.22L32.7,8.13l-0.22-0.39l0.04,0.4c0,0-1.49-0.27-2.07-0.87c0,0,2.47-1.39,4.32-0.47l-0.39,0.22l0.51-0.11l0.77,0.37
		l-0.13,0.33l0.48-0.28C36.01,7.34,37.38,8.14,37.64,9.65z"/>
	<path class="st1" d="M37.13,8.96l0.66,0.64c0,0-10.81,8.69-7.98,31.96h-1.92C27.88,41.55,24.77,20.67,37.13,8.96z"/>
</g>
<g>
	<path class="st1" d="M46.41,20.75c0,0,1.05-0.36,2.07,0.16l-0.06,0.16l0.29-0.15c0,0,0.61,0.4,0.73,0.7l-0.11,0.19l0.26-0.03
		l0.24,0.37l-0.29,0.24l0.4,0.07c0,0,0.24,0.51,0.25,0.74l-0.19,0.1l0.22,0.14c0,0,0.43,1.43-0.17,2.49l-0.45-1.28l0.06-0.16
		l-0.11-0.02l-0.57-0.95l0.15-0.15l-0.25-0.02l-0.15-0.18c0,0,0.13-0.23,0.25-0.23c0.12,0-0.43,0.01-0.43,0.01l-0.59-0.63l0.22-0.26
		l-0.43,0.07l-0.53-0.52l0.11-0.21l-0.24,0.01C47.12,21.42,46.83,21.31,46.41,20.75z"/>
	<path class="st1" d="M46.41,20.75c0,0,3.97-0.62,5.43,0.46c0,0-0.11-0.36-0.33-0.47l-0.14,0.01l0.06-0.22l-0.05-0.07l-0.22,0.08
		l0.1-0.22l-0.15-0.09c0,0-0.68-0.02-0.73-0.06c-0.05-0.04,0.54-0.11,0.54-0.11s-0.47-0.39-1.32-0.46l-0.57,0.33l0.37-0.31
		c0,0-0.5-0.06-1.15,0.11c-0.07,0.02-0.27,0.24-0.27,0.24l-0.03-0.15C47.93,19.81,47.2,19.84,46.41,20.75z"/>
	<path class="st1" d="M46.41,20.75c0,0,0.88-0.63,1.2-0.78l-0.14-0.29l0.27,0.25l0.5-0.25l-0.03-0.26l0.16,0.15l0.44-0.12
		c0,0-0.08-0.31-0.03-0.31c0.05,0,0.18,0.27,0.18,0.27l0.82-0.22l0.06-0.23l0.02,0.2c0,0,1.37-0.42,1.74-0.73
		c0.37-0.31-2.06-0.83-3.27-0.39l0.13,0.19l-0.32-0.11c0,0-0.52,0.18-0.72,0.38c0,0,0.33,0.1,0.27,0.28c0,0-0.51-0.16-0.69-0.08
		C46.81,18.76,45.96,19.53,46.41,20.75z"/>
	<path class="st1" d="M46.41,20.75c0,0,0.36-1.54,0.68-2.17l-0.14-0.12l0.29-0.03l0.15-0.55l-0.21-0.04l0.39-0.04l0.25-0.5
		l-0.2-0.21l0.34,0.1l0.27-0.35l-0.15-0.22l0.26,0.09l0.62-0.93c0,0-1.02-0.09-1.85,0.55l0.05,0.36L47,16.47
		c0,0-0.69,0.72-0.89,1.23l0.08,0.47l-0.28-0.22C45.91,17.95,45.59,20.09,46.41,20.75z"/>
	<path class="st1" d="M46.41,20.75c0.24,0.08,0.55,0.52,0.58,0.84c0.05,0.64-0.03,0.62-0.18,0.61c-0.16-0.01-0.66-0.02-0.66-0.02
		l0.37,0.32l-0.29,0.46l-0.3-0.06l0.19,0.25l-0.35,0.42l-0.34,0.03l0.16,0.33l-1.09,1.46l-0.18-0.54l0.24-0.11l-0.25-0.03
		l-0.05-0.51c0,0,0.32-0.14,0.47-0.1c0.15,0.04-0.28-0.13-0.58-0.07l-0.03-0.3c0,0,0.2-0.15,0.37-0.04c0,0-0.09-0.2-0.39-0.21
		l-0.08-0.78l0.7-0.34l-0.62,0.04c0,0,0.05-0.18,0.14-0.53l0.73-0.14l-0.54-0.02C44.43,21.72,44.9,20.28,46.41,20.75z"/>
	<path class="st1" d="M46.41,20.75c0,0-3.71-0.68-6.26,0.02c0,0-0.04-0.17,0.33-0.41l0.23,0.02l-0.11-0.1c0,0,0.25-0.22,0.34-0.23
		c0.09-0.01,0.13,0.07,0.13,0.07l-0.01-0.15l0.2-0.16l0.34,0.11c0,0-0.04-0.2-0.18-0.22l0.35-0.14c0,0,0.18,0.02,0.25,0.12
		c0.07,0.1-0.07-0.14-0.07-0.14s0.39-0.2,0.46-0.19c0.07,0.01,0.27,0.46,0.27,0.46l0.12-0.01l-0.15-0.47l0.59-0.02l0.1,0.29
		l0.02-0.34c0,0,0.43,0.08,0.55,0.1s0.34,0.43,0.34,0.43l-0.05-0.41l0.4,0.18l0.18,0.45l0.05-0.41l0.21,0.13l0.01,0.26l0.17-0.18
		C45.22,19.81,46.02,19.96,46.41,20.75z"/>
	<path class="st1" d="M46.41,20.75l-1.13-0.78l-0.03-0.32L45.1,19.8l-0.3-0.34l0.03-0.34l-0.18,0.02l-0.33-0.22l-0.03-0.27
		l-0.18,0.1l-0.61-0.52l-0.03-0.33l-0.09,0.28c0,0-0.93-0.63-1.14-1.22c0,0,2.1-0.2,3.08,0.99l-0.33,0.03l0.38,0.08l0.41,0.48
		l-0.19,0.19L46,18.68C46,18.68,46.69,19.64,46.41,20.75z"/>
	<path class="st1" d="M46.27,20.12l0.26,0.64c0,0-9.98,2.63-15.11,19.3l-1.31-0.58C30.12,39.47,34.32,24.34,46.27,20.12z"/>
</g>
<path class="st1" d="M28.03,45.21c0.11,0,0.22,0,0.33,0c4.69,0,7.57-2.27,10.25-5.04c0.64-0.67,0.51-1.75-0.27-2.26
	c-1.41-0.92-3.05-1.54-4.81-1.54c-1.78,0-3.45,0.63-4.87,1.58c-2.52,1.68-5.47,2.61-8.5,2.61h-2.96
	C19.85,42.9,23.52,45.11,28.03,45.21z"/>
<linearGradient id="SVGID_1_" gradientUnits="userSpaceOnUse" x1="40.4098" y1="57.7913" x2="35.0153" y2="46.2091">
	<stop  offset="0" style="stop-color:#79BB9A"/>
	<stop  offset="1" style="stop-color:#297B71"/>
</linearGradient>
<path class="st0" d="M43.47,38.44c5.2-5.45,14.13,0.48,11.03,7.34c-3.61,7.98-11.65,13.54-20.98,13.54
	c-12.71,0-23.01-10.3-23.01-23.01c0,0,6.37,11.04,17.48,11.29C35.95,47.77,39.71,42.38,43.47,38.44z"/>
<circle class="st3" cx="21.01" cy="31.89" r="2.63"/>
</svg>
